<svg id="Слой_1" data-name="Слой 1" xmlns="http://www.w3.org/2000/svg" viewBox="0 0 67.19 24.45"><defs><style>.cls-1{fill:#e60004;}.cls-1,.cls-2,.cls-3,.cls-6,.cls-7{fill-rule:evenodd;opacity:0.7;isolation:isolate;}.cls-2{fill:#ee7900;}.cls-3{fill:#fdca00;}.cls-4{fill:none;}.cls-5{fill:#534968;}.cls-6{fill:#0b3b8d;}.cls-7{fill:#8e82ad;}</style></defs><title>Монтажная область 1</title><path class="cls-1" d="M0,0V24.45c.41.21.77,0,1.24,0,.76,0,.06,0,.08,0H37.65A38.08,38.08,0,0,0,54.84,7.71,35.46,35.46,0,0,0,57.41,0Z"/><path class="cls-2" d="M0,0V6c.8.43,1.61.83,2.44,1.2a37.76,37.76,0,0,0,29.5,0A39,39,0,0,0,43.4,0Z"/><path class="cls-3" d="M67.19,24.45V0H7.85a42.07,42.07,0,0,0,13,19.81,41.53,41.53,0,0,0,6.38,4.64Z"/><path class="cls-4" d="M82.84-39.19a42.72,42.72,0,0,0-21.1-22c-9.6-4.6-19.2-4.8-27.2-1.2a35.91,35.91,0,0,0-11.8,8.6,38.3,38.3,0,0,1,15.4-2c14.6.6,23,7.5,30,17.5,2,13.2.1,24.8-6.5,34.8-23.3,7.7-40.2.7-51-20.1a26.7,26.7,0,0,0,1.7,8.3A34.55,34.55,0,0,0,23.74,0H67.19V6.72A32.73,32.73,0,0,0,82.74-9,39.05,39.05,0,0,0,82.84-39.19Z"/><path class="cls-5" d="M23.74,0a47.48,47.48,0,0,0,6.9,4.51c9.3,5,20.1,6.8,29.8,4.6a32.8,32.8,0,0,0,6.75-2.39V0Z"/><path class="cls-6" d="M67.19,0H6.13A34.28,34.28,0,0,0,19.34,14.81c7.1,4.2,15.9,5.6,26.1,2.6a41.78,41.78,0,0,0,21.75-12Z"/><path class="cls-7" d="M1.24,0a39.26,39.26,0,0,0,6.1,5.31,39.69,39.69,0,0,0,28.3,7.2A34.68,34.68,0,0,0,58.93,0Z"/></svg>