<svg width="40" height="50" viewBox="0 0 40 50" fill="none" xmlns="http://www.w3.org/2000/svg">
<path d="M39.5 17.8571C39.5 20.1885 38.3057 23.3349 36.4349 26.8027C34.5755 30.2496 32.0905 33.9383 29.5971 37.3308C27.1051 40.7214 24.612 43.8062 22.7414 46.0439C21.8063 47.1625 21.0272 48.0688 20.4822 48.6952C20.2917 48.914 20.1299 49.0987 20 49.2462C19.8701 49.0987 19.7083 48.914 19.5178 48.6952C18.9728 48.0688 18.1937 47.1625 17.2586 46.0439C15.388 43.8062 12.8949 40.7214 10.4029 37.3308C7.90949 33.9383 5.42451 30.2496 3.56505 26.8027C1.69429 23.3349 0.5 20.1885 0.5 17.8571C0.5 8.32283 9.17566 0.5 20 0.5C30.8243 0.5 39.5 8.32283 39.5 17.8571Z" stroke="#4F4B69"/>
</svg>
