<svg width="90" height="82" viewBox="0 0 90 82" fill="none" xmlns="http://www.w3.org/2000/svg">
<path d="M38.8103 75.7304L38.8096 75.7298C27.2122 65.2866 17.6258 56.6448 10.9329 48.5136C4.24542 40.3889 0.5 32.8356 0.5 24.5777C0.5 11.0495 11.1622 0.5 24.75 0.5C32.4301 0.5 39.8086 4.05292 44.6217 9.62177L45 10.0595L45.3783 9.62177C50.1914 4.05292 57.5699 0.5 65.25 0.5C78.8378 0.5 89.5 11.0495 89.5 24.5777C89.5 32.8356 85.7546 40.3889 79.0671 48.5136C72.3742 56.6448 62.7878 65.2866 51.1904 75.7298L51.1897 75.7304L45 81.326L38.8103 75.7304Z" stroke="#000000"/>
</svg>
