<?xml version="1.0" encoding="utf-8"?>
<!-- Generator: Adobe Illustrator 23.1.0, SVG Export Plug-In . SVG Version: 6.00 Build 0)  -->
<svg version="1.1" id="Слой_1" xmlns="http://www.w3.org/2000/svg" xmlns:xlink="http://www.w3.org/1999/xlink" x="0px" y="0px"
	 viewBox="0 0 228.3 160.9" style="enable-background:new 0 0 228.3 160.9;" xml:space="preserve">
<style type="text/css">
	.st0{fill:#534968;}
	.st1{opacity:0.7;fill-rule:evenodd;clip-rule:evenodd;fill:#E60004;enable-background:new    ;}
	.st2{opacity:0.7;fill-rule:evenodd;clip-rule:evenodd;fill:#EE7900;enable-background:new    ;}
	.st3{opacity:0.7;fill-rule:evenodd;clip-rule:evenodd;fill:#FDCA00;enable-background:new    ;}
	.st4{opacity:0.7;fill-rule:evenodd;clip-rule:evenodd;fill:#009836;enable-background:new    ;}
	.st5{opacity:0.7;fill-rule:evenodd;clip-rule:evenodd;fill:#00A6EB;enable-background:new    ;}
	.st6{opacity:0.7;fill-rule:evenodd;clip-rule:evenodd;fill:#0B3B8D;enable-background:new    ;}
	.st7{opacity:0.7;fill-rule:evenodd;clip-rule:evenodd;fill:#8E82AD;enable-background:new    ;}
</style>
<g>
	<path class="st0" d="M120.7,129.9c-2.9-2.3-6.8-3.6-11.2-3.6c-4.4,0-8.4,1.4-11.2,3.6c-2.8,2.2-4.6,5.3-4.6,8.6
		c0,3.4,1.7,6.4,4.6,8.6c2.9,2.3,6.8,3.6,11.2,3.6c4.4,0,8.4-1.4,11.2-3.6c2.8-2.2,4.6-5.3,4.6-8.6
		C125.2,135.2,123.5,132.2,120.7,129.9 M114.9,134.5c-1.4-1.1-3.3-1.8-5.5-1.8c-2.1,0-4.1,0.7-5.5,1.8s-2.2,2.5-2.2,4.1
		s0.8,3.1,2.2,4.1c1.4,1.1,3.3,1.8,5.5,1.8c2.1,0,4.1-0.7,5.5-1.8c1.3-1.1,2.2-2.5,2.2-4.1S116.2,135.5,114.9,134.5z M109.4,131.1
		c2.6,0,4.9,0.8,6.6,2.2s2.8,3.3,2.8,5.4c0,2.1-1.1,4-2.8,5.4c-1.7,1.3-4,2.2-6.6,2.2s-4.9-0.8-6.6-2.2s-2.8-3.3-2.8-5.4
		c0-2.1,1.1-4,2.8-5.4C104.5,131.9,106.8,131.1,109.4,131.1z M109.4,124.7c4.8,0,9.2,1.5,12.4,4c3.2,2.5,5.2,6,5.2,9.9
		s-2,7.4-5.2,9.9s-7.5,4-12.4,4c-4.8,0-9.2-1.5-12.4-4c-3.2-2.5-5.2-6-5.2-9.9s2-7.4,5.2-9.9S104.6,124.7,109.4,124.7z M23.2,144
		c-2.2-1.8-4.5-3.6-6.7-5.4l15.9-13.4H40l-16,13.4L40.7,152h-7.6L23.2,144z M205,140.5l-4.7-6.8l-4.6,6.8H205z M179.2,152l18.3-26.7
		h5.7l18.2,26.7h-8.7l-4.6-6.4h-15.8l-4.4,6.4H179.2z M54.4,138.5h19.3c1.5,0,2.6-0.3,3.5-0.8c0.8-0.5,1.3-1.3,1.3-2.3
		s-0.4-1.7-1.3-2.3c-0.8-0.5-2-0.8-3.5-0.8H54.4V138.5z M42.4,151.9v-26.7c10.7,0,21.4,0,32.2,0c7,0,16.1,1.4,16.1,10.2
		c0,3.3-1.3,5.9-4.1,7.7c-3.4,2.1-8.1,2.5-12,2.5c-6.7,0-13.4,0-20.1,0v6.3H42.4z M129.2,152v-26.7h5.2v15.3H174v-15.3h5.2V152H174
		v-8.4h-39.6v8.4H129.2z M8.4,152v-26.8h8V152H8.4z"/>
	<path class="st1" d="M88.5,63c-2.7-6-3.4-12-3.1-17.9c0.5-0.7,1.1-1.5,1.7-2.2c-1,0.2-2.1,0.5-3.1,0.9c-7.7,2.7-14.5,8.7-18.7,18.4
		c-4.9,9.4-6.2,19.8-3.8,28.6c2.2,8.5,8.5,15.9,18.1,20.4c9.6,4.6,20.6,5.4,30.4,2.5c9.8-2.9,18.3-9.7,23.2-19.1
		c1.6-3.4,2.6-7,3-10.5C114.7,90.1,98.8,82.8,88.5,63z"/>
	<path class="st2" d="M88.5,63c-2.7-6-3.4-12-3.1-17.9c5.6-7.4,12.9-15,30.6-14.2c3.8,0.2,7.2,0.8,10.3,1.7c-3.1-3.7-7-6.7-11.9-9
		c-9.6-4.6-21.6-5.6-32.3-2.8c-10,2.7-18.1,9.2-22.4,18.9c-3.9,9.9-3.7,21.9,0.1,32.2c3.7,9.9,11,18.2,20.8,22.4
		c9.8,4.2,20.3,3.7,29.5,0c4.6-1.9,8.9-4.7,12.6-8.2C107.9,86.2,96.6,78.4,88.5,63z"/>
	<path class="st3" d="M152.4,49.7c-3.4-3.4-7.3-6-11.6-7.8c1.9,2,3.6,4.1,5.2,6.5c2,13.2,0.1,24.8-6.5,34.7
		c-23.3,7.7-40.2,0.7-51-20.1c0,0,0-0.1,0-0.1c-2.7,5.1-4,10.9-3.6,17.1c1.2,10.6,6.7,20.2,14.5,26.9c7.6,6.7,17.7,10.6,28.3,10.3
		c10.6-0.4,19.3-5.2,25.7-12.3c6.7-7.3,11.1-16.8,11-27.4C164.3,66.9,159.7,57,152.4,49.7z"/>
	<path class="st4" d="M155.5,26.8c-6.1-8.4-15.3-14.4-25.8-15.8c-10.5-1.5-20.6,1.6-28.4,7.4C93.4,24.2,87.7,32.8,86.1,43
		c-0.1,0.5-0.2,1-0.2,1.5c5.5-7.2,12.9-14.4,30.2-13.6c14.6,0.6,23,7.5,30,17.5c2,13.2,0.1,24.8-6.5,34.7
		c-23.3,7.7-40.2,0.7-51-20.1c-1.5-3.3-2.3-6.5-2.8-9.7c0.7,6.3,3,12.2,6.4,17.3c5.1,7.6,12.8,13.3,23.2,15.1
		c10.4,1.9,22.4-0.1,31.9-5.5c9-5,15.2-13.1,16.7-23.3C165.2,46.7,161.9,35.5,155.5,26.8z"/>
	<path class="st5" d="M161,47.9c-3.9-9.5-11.5-17.5-21.1-22c-9.6-4.6-19.2-4.8-27.2-1.2c-4,1.8-7.8,4.5-11.1,7.8
		c3.9-1.3,8.6-1.9,14.4-1.6c14.6,0.6,23,7.5,30,17.5c2,13.2,0.1,24.8-6.5,34.7c-23.2,7.7-40,0.8-50.8-19.8c0.2,2.9,0.7,5.7,1.7,8.4
		c2.8,7.8,8.9,14.8,18.3,19.8c9.4,5,20.1,6.8,29.8,4.6c9.5-2.2,17.7-8.6,22.3-18.1C165,68.3,164.9,57.4,161,47.9z"/>
	<g>
		<path class="st6" d="M116,30.9c0.9,0,1.7,0.1,2.5,0.2c-3.9-0.5-7.8-0.5-11.8,0.3C109.5,30.9,112.6,30.7,116,30.9z"/>
		<path class="st6" d="M152.4,62.3c-1.6-6.2-4.5-12-8.5-16.8c0.7,0.9,1.5,1.9,2.2,2.9c2,13.2,0.1,24.8-6.5,34.7
			c-23.3,7.7-40.2,0.7-51-20.1c-2.6-5.7-3.3-11.5-3.1-17.1c-0.8,1.3-1.6,2.7-2.2,4.1c-4.1,9.1-4.5,19.9-1.4,30.1
			c3.1,10.2,8.8,17.6,16,21.9c7,4.2,15.9,5.5,26.1,2.6c10.3-2.2,19.2-7.9,24.4-15.3C153.3,82.1,155,72.6,152.4,62.3z"/>
	</g>
	<g>
		<path class="st7" d="M88.8,63.4c-2.7-6-3.4-12-3.1-17.9c5.6-7.4,12.9-15,30.6-14.2c14.6,0.6,23,7.5,30,17.5
			c0.9,6.2,1,12.1,0.1,17.7c0.7-3.8,1-7.7,0.8-11.5c-0.6-10.4-5.4-19.6-14.1-25.7c-8.9-5.7-20.7-8-31.6-6.3
			c-10.6,1.6-20.2,7.2-26.2,15.9s-7.7,19.2-5.8,28.9c1.9,9.7,7.3,18.8,16,24.9c8.6,6.3,18.7,8.3,28.2,7.2
			c9.3-1.1,17.9-5.3,24.3-13.8c0.6-0.8,1.2-1.7,1.8-2.6C116.5,91.2,99.6,84.2,88.8,63.4z"/>
		<path class="st7" d="M140.3,82.8C140.3,82.8,140.3,82.8,140.3,82.8C140.3,82.8,140.3,82.8,140.3,82.8z"/>
	</g>
</g>
</svg>
